<?xml version="1.0" standalone="no"?>
<!DOCTYPE svg PUBLIC "-//W3C//DTD SVG 20010904//EN"
 "http://www.w3.org/TR/2001/REC-SVG-20010904/DTD/svg10.dtd">
<svg version="1.0" xmlns="http://www.w3.org/2000/svg"
 width="50.000000pt" height="50.000000pt" viewBox="0 0 50.000000 50.000000"
 preserveAspectRatio="xMidYMid meet">

<g transform="translate(0.000000,50.000000) scale(0.100000,-0.100000)"
fill="#000000" stroke="none">
<path d="M91 446 c-43 -24 -50 -52 -51 -193 0 -204 8 -213 209 -213 202 0 211
9 211 210 0 144 -9 177 -55 198 -37 17 -282 15 -314 -2z m324 -31 c24 -23 25
-29 25 -165 0 -193 3 -190 -190 -190 -136 0 -142 1 -165 25 -24 23 -25 29 -25
165 0 136 1 142 25 165 23 24 29 25 165 25 136 0 142 -1 165 -25z"/>
<path d="M182 356 c-12 -16 -31 -26 -53 -28 l-34 -3 0 -95 0 -95 155 0 155 0
0 95 0 95 -34 3 c-22 2 -41 12 -53 28 -16 19 -29 24 -68 24 -39 0 -52 -5 -68
-24z m130 -21 c13 -16 29 -25 49 -25 l29 0 0 -80 0 -80 -140 0 -140 0 0 80 0
80 30 0 c19 0 35 8 47 25 26 35 97 36 125 0z"/>
<path d="M202 277 c-28 -30 -28 -68 1 -95 30 -28 68 -28 95 1 28 30 28 68 -1
95 -30 28 -68 28 -95 -1z m82 -13 c31 -30 9 -84 -34 -84 -24 0 -50 26 -50 50
0 10 7 26 16 34 8 9 24 16 34 16 10 0 26 -7 34 -16z"/>
<path d="M330 290 c0 -5 5 -10 10 -10 6 0 10 5 10 10 0 6 -4 10 -10 10 -5 0
-10 -4 -10 -10z"/>
<path d="M110 350 c0 -5 9 -10 20 -10 11 0 20 5 20 10 0 6 -9 10 -20 10 -11 0
-20 -4 -20 -10z"/>
</g>
</svg>
