<?xml version="1.0" standalone="no"?>
<!DOCTYPE svg PUBLIC "-//W3C//DTD SVG 20010904//EN"
 "http://www.w3.org/TR/2001/REC-SVG-20010904/DTD/svg10.dtd">
<svg version="1.0" xmlns="http://www.w3.org/2000/svg"
 width="50.000000pt" height="50.000000pt" viewBox="0 0 50.000000 50.000000"
 preserveAspectRatio="xMidYMid meet">

<g transform="translate(0.000000,50.000000) scale(0.100000,-0.100000)"
fill="#000000" stroke="none">
<path d="M155 456 c-60 -28 -87 -56 -114 -116 -36 -79 -19 -183 42 -249 33
-36 115 -71 167 -71 52 0 134 35 167 71 34 37 63 110 63 159 0 52 -35 134 -71
167 -37 34 -110 63 -159 63 -27 0 -65 -10 -95 -24z m158 -7 c37 -10 117 -72
117 -90 0 -5 -45 -9 -100 -9 -111 0 -145 -11 -167 -53 -16 -33 -19 -31 -57 34
l-26 45 29 28 c52 49 128 66 204 45z m-193 -177 c63 -105 82 -122 135 -122 31
0 30 -7 -9 -69 -23 -36 -28 -39 -54 -31 -88 25 -152 109 -152 200 0 39 20 101
30 95 6 -3 28 -36 50 -73z m185 33 c33 -32 33 -78 0 -110 -49 -50 -135 -15
-135 55 0 19 9 40 25 55 15 16 36 25 55 25 19 0 40 -9 55 -25z m149 -6 c20
-102 -28 -199 -119 -240 -35 -16 -85 -25 -85 -16 0 2 22 44 50 93 54 96 58
119 35 164 l-16 30 64 0 c64 0 65 0 71 -31z"/>
</g>
</svg>
