<?xml version="1.0" standalone="no"?>
<!DOCTYPE svg PUBLIC "-//W3C//DTD SVG 20010904//EN"
 "http://www.w3.org/TR/2001/REC-SVG-20010904/DTD/svg10.dtd">
<svg version="1.0" xmlns="http://www.w3.org/2000/svg"
 width="96.000000pt" height="96.000000pt" viewBox="0 0 96.000000 96.000000"
 preserveAspectRatio="xMidYMid meet">

<g transform="translate(0.000000,96.000000) scale(0.100000,-0.100000)"
fill="#000000" stroke="none">
<path d="M130 830 c-19 -19 -20 -33 -20 -350 0 -317 1 -331 20 -350 19 -19 33
-20 350 -20 317 0 331 1 350 20 19 19 20 33 20 350 0 317 -1 331 -20 350 -19
19 -33 20 -350 20 -317 0 -331 -1 -350 -20z m682 -17 c17 -15 18 -39 18 -330
0 -300 -1 -314 -20 -333 -19 -19 -33 -20 -330 -20 -297 0 -311 1 -330 20 -19
19 -20 33 -20 332 0 276 2 314 17 330 15 17 39 18 331 18 279 0 318 -2 334
-17z"/>
<path d="M234 717 c-2 -7 -3 -58 -2 -113 l3 -99 110 0 110 0 0 110 0 110 -108
3 c-83 2 -109 0 -113 -11z m206 -102 l0 -95 -95 0 -95 0 0 95 0 95 95 0 95 0
0 -95z"/>
<path d="M294 657 c-3 -8 -4 -32 -2 -53 l3 -39 50 0 50 0 0 50 0 50 -48 3
c-34 2 -49 -1 -53 -11z m86 -42 c0 -33 -2 -35 -35 -35 -33 0 -35 2 -35 35 0
33 2 35 35 35 33 0 35 -2 35 -35z"/>
<path d="M504 717 c-2 -7 -3 -58 -2 -113 l3 -99 110 0 110 0 0 110 0 110 -108
3 c-83 2 -109 0 -113 -11z m206 -102 l0 -95 -95 0 -95 0 0 95 0 95 95 0 95 0
0 -95z"/>
<path d="M564 657 c-3 -8 -4 -32 -2 -53 l3 -39 50 0 50 0 0 50 0 50 -48 3
c-34 2 -49 -1 -53 -11z m86 -42 c0 -33 -2 -35 -35 -35 -33 0 -35 2 -35 35 0
33 2 35 35 35 33 0 35 -2 35 -35z"/>
<path d="M234 447 c-2 -7 -3 -58 -2 -113 l3 -99 110 0 110 0 0 110 0 110 -108
3 c-83 2 -109 0 -113 -11z m206 -102 l0 -95 -95 0 -95 0 0 95 0 95 95 0 95 0
0 -95z"/>
<path d="M294 387 c-3 -8 -4 -32 -2 -53 l3 -39 50 0 50 0 0 50 0 50 -48 3
c-34 2 -49 -1 -53 -11z m84 -44 c3 -32 2 -33 -32 -33 -33 0 -36 3 -36 28 0 36
8 44 40 40 20 -2 26 -9 28 -35z"/>
<path d="M507 453 c-11 -10 -8 -93 3 -93 6 0 10 5 10 10 0 6 16 10 35 10 32 0
35 -2 35 -30 0 -16 5 -30 11 -30 6 0 9 16 7 38 -3 36 -4 37 -45 40 -35 3 -43
7 -43 23 0 10 7 19 15 19 8 0 15 5 15 10 0 11 -33 14 -43 3z"/>
<path d="M590 450 c0 -5 5 -10 10 -10 6 0 10 5 10 10 0 6 -4 10 -10 10 -5 0
-10 -4 -10 -10z"/>
<path d="M650 451 c0 -6 14 -11 30 -11 28 0 30 -2 30 -40 0 -22 5 -40 11 -40
6 0 9 19 7 48 -3 47 -3 47 -40 50 -22 2 -38 -1 -38 -7z"/>
<path d="M660 390 c0 -5 7 -10 15 -10 8 0 15 5 15 10 0 6 -7 10 -15 10 -8 0
-15 -4 -15 -10z"/>
<path d="M654 324 c3 -9 6 -20 6 -25 0 -5 7 -9 15 -9 8 0 15 4 15 9 0 21 -13
41 -27 41 -10 0 -13 -6 -9 -16z"/>
<path d="M502 283 c3 -41 6 -48 26 -51 12 -2 22 1 22 7 0 6 -7 11 -15 11 -11
0 -15 11 -15 40 0 22 -5 40 -11 40 -6 0 -9 -19 -7 -47z"/>
<path d="M710 290 c0 -29 -4 -40 -15 -40 -8 0 -15 -5 -15 -11 0 -6 10 -9 23
-7 19 3 22 10 25 51 2 28 -1 47 -7 47 -6 0 -11 -18 -11 -40z"/>
<path d="M540 300 c0 -5 7 -10 15 -10 8 0 15 5 15 10 0 6 -7 10 -15 10 -8 0
-15 -4 -15 -10z"/>
<path d="M592 258 c3 -23 48 -40 48 -19 0 6 -7 11 -15 11 -8 0 -15 7 -15 15 0
8 -5 15 -11 15 -6 0 -9 -10 -7 -22z"/>
</g>
</svg>
